<?xml version="1.0" encoding="UTF-8" standalone="no"?>
<!DOCTYPE svg PUBLIC "-//W3C//DTD SVG 1.1//EN" "http://www.w3.org/Graphics/SVG/1.1/DTD/svg11.dtd">
<svg width="100%" height="100%" viewBox="0 0 120 120" version="1.1" xmlns="http://www.w3.org/2000/svg" xmlns:xlink="http://www.w3.org/1999/xlink" xml:space="preserve" xmlns:serif="http://www.serif.com/" style="fill-rule:evenodd;clip-rule:evenodd;stroke-linejoin:round;stroke-miterlimit:2;">
    <g transform="matrix(1.83336,0,0,1.83336,-1158.62,-327.357)">
        <path d="M636.875,195.011C636.058,193.399 636.416,191.378 637.853,190.156C641.669,186.911 643.22,186.31 645.987,185.891C651.383,183.255 657.051,182.389 658.178,182.233C667.49,180.942 671.115,180.316 673.963,180.084C675.129,179.76 676.583,179.527 678.828,179.532C680.906,179.232 683.194,179.114 687.158,179.63C688.29,179.778 689.253,180.387 689.878,181.246C690.842,182.079 691.392,183.356 691.243,184.714C691.148,185.577 690.784,186.347 690.244,186.949C691.693,187.117 692.64,187.491 693.363,187.951C694.658,188.776 695.5,190.125 696.63,193.096C697.197,194.59 696.821,196.278 695.674,197.39C693.184,199.802 692.305,200.22 690.247,200.647C690.275,200.763 690.298,200.881 690.316,201.001C690.367,201.342 690.373,201.685 690.337,202.02C690.501,202.301 690.633,202.606 690.727,202.93C691.102,204.23 690.789,205.601 689.956,206.601C690.649,207.212 691.132,208.062 691.271,209.037C691.282,209.114 691.29,209.191 691.297,209.268C691.932,209.245 692.596,209.222 693.288,209.2C695.166,209.14 696.833,210.395 697.294,212.217C697.754,214.039 696.885,215.936 695.204,216.776C695.199,216.778 695.195,216.78 695.19,216.782C695.979,217.29 696.586,218.071 696.865,219.017C697.365,220.713 696.691,222.537 695.209,223.501C692.433,225.306 691.149,226.005 689.585,226.719C689.806,226.823 690.009,226.935 690.196,227.052L691.441,228.129L692.367,229.731L692.667,231.093L692.579,232.873C692.29,234.49 691.043,235.765 689.433,236.09C688.139,236.351 688.147,236.349 688.035,236.372C687.876,236.405 687.719,236.447 687.567,236.502C676.562,240.403 660.006,239.47 648.146,243.113C646.818,243.521 645.373,243.211 644.33,242.294C643.286,241.376 642.794,239.983 643.029,238.614C643.109,238.145 643.169,237.778 643.214,237.489C642.313,237.626 641.238,237.816 639.843,238.06C637.957,238.39 636.102,237.336 635.418,235.548C635.218,235.024 635.135,234.48 635.158,233.947C634.218,233.49 633.472,232.672 633.12,231.637C632.572,230.024 633.106,228.241 634.45,227.194C635.056,226.722 635.613,226.349 636.115,226.022C636.29,225.908 636.519,225.753 636.701,225.628C636.703,225.475 636.701,225.293 636.689,225.137C636.622,224.255 635.902,224.128 635.299,224.013C633.79,223.727 632.579,222.603 632.181,221.12C631.783,219.637 632.269,218.058 633.431,217.055C633.525,216.974 634.172,216.267 634.654,215.738L634.262,215.042L633.959,214.858L633.156,214.084L632.594,213.157L632.326,212.311L632.331,210.649L632.819,209.388L634.038,208.055C634.431,207.765 635.813,207.412 636.879,205.966C636.88,205.461 636.899,204.793 636.982,204.419L637.045,204.256C635.347,204.735 633.49,204.04 632.543,202.48C631.466,200.704 631.927,198.399 633.604,197.174C634.891,196.235 635.821,195.562 636.875,195.011ZM634.576,215.232C634.653,215.283 634.727,215.33 634.78,215.355L634.576,215.232ZM676.345,221.952L676.415,222.091C676.393,222.027 676.367,221.986 676.345,221.952Z" style="fill:#dc2726;"/>
    </g>
</svg>
