<?xml version="1.0" encoding="UTF-8" standalone="no"?>
<!DOCTYPE svg PUBLIC "-//W3C//DTD SVG 1.1//EN" "http://www.w3.org/Graphics/SVG/1.1/DTD/svg11.dtd">
<svg width="100%" height="100%" viewBox="0 0 325 1649" version="1.1" xmlns="http://www.w3.org/2000/svg" xmlns:xlink="http://www.w3.org/1999/xlink" xml:space="preserve" xmlns:serif="http://www.serif.com/" style="fill-rule:evenodd;clip-rule:evenodd;stroke-linejoin:round;stroke-miterlimit:2;">
    <g transform="matrix(0.911426,0,0,0.911426,18.1128,68.606)">
        <path d="M75.052,101L74.909,102.995L75.052,101ZM297.552,161L299.454,160.382L297.552,161ZM271.052,357L272.984,356.484L271.052,357ZM10.052,713L8.071,713.274L10.052,713ZM192.052,799L193.93,798.311L192.052,799ZM219.552,1141L221.548,1141.13L219.552,1141ZM68.552,1211L68.538,1213L68.552,1213L68.552,1211ZM10.052,1308L8.238,1308.84L10.052,1308ZM242.552,1325.5L242.144,1323.54L242.552,1325.5ZM263.552,1644.5C262.448,1644.5 261.552,1645.4 261.552,1646.5C261.552,1647.6 262.448,1648.5 263.552,1648.5L263.552,1644.5ZM47.439,0.127C46.337,0.196 45.499,1.146 45.568,2.249C45.637,3.351 46.587,4.189 47.689,4.12L47.439,0.127ZM40.128,5.098C41.211,4.882 41.913,3.828 41.696,2.745C41.48,1.662 40.426,0.959 39.343,1.176L40.128,5.098ZM31.419,3.38C30.38,3.756 29.843,4.903 30.219,5.942C30.595,6.98 31.742,7.517 32.781,7.141L31.419,3.38ZM25.884,10.282C26.848,9.744 27.194,8.525 26.655,7.561C26.116,6.597 24.898,6.252 23.934,6.79L24.909,8.536L25.884,10.282ZM17.1,11.412C16.242,12.108 16.11,13.367 16.806,14.225C17.501,15.083 18.761,15.215 19.619,14.519L18.359,12.966L17.1,11.412ZM14.195,19.78C14.916,18.943 14.822,17.68 13.985,16.96C13.148,16.239 11.885,16.333 11.164,17.171L12.68,18.475L14.195,19.78ZM6.36,23.904C5.804,24.858 6.126,26.083 7.08,26.64C8.034,27.196 9.259,26.874 9.816,25.92L8.088,24.912L6.36,23.904ZM6.636,32.753C7.007,31.712 6.464,30.568 5.424,30.197C4.384,29.826 3.24,30.368 2.868,31.408L4.752,32.081L6.636,32.753ZM0.824,39.435C0.653,40.526 1.398,41.55 2.49,41.721C3.581,41.892 4.604,41.147 4.776,40.056L2.8,39.745L0.824,39.435ZM4.308,47.573C4.273,46.469 3.35,45.602 2.246,45.637C1.142,45.672 0.275,46.595 0.31,47.699L2.309,47.636L4.308,47.573ZM1.339,55.91C1.577,56.989 2.644,57.67 3.722,57.432C4.801,57.194 5.483,56.127 5.245,55.048L3.292,55.479L1.339,55.91ZM7.535,62.243C7.107,61.225 5.934,60.746 4.916,61.174C3.898,61.602 3.419,62.774 3.847,63.793L5.691,63.018L7.535,62.243ZM7.689,71.094C8.284,72.025 9.521,72.297 10.451,71.702C11.382,71.107 11.654,69.87 11.059,68.939L9.374,70.017L7.689,71.094ZM15.643,74.982C14.91,74.156 13.645,74.082 12.82,74.815C11.994,75.549 11.92,76.813 12.653,77.639L14.148,76.31L15.643,74.982ZM18.532,83.36C19.375,84.073 20.637,83.968 21.351,83.125C22.064,82.281 21.959,81.02 21.115,80.306L19.824,81.833L18.532,83.36ZM27.271,84.871C26.346,84.269 25.107,84.531 24.504,85.457C23.902,86.383 24.164,87.622 25.09,88.224L26.181,86.547L27.271,84.871ZM32.126,92.26C33.112,92.757 34.314,92.362 34.812,91.375C35.31,90.389 34.914,89.187 33.928,88.689L33.027,90.474L32.126,92.26ZM40.982,91.827C39.953,91.426 38.794,91.934 38.392,92.963C37.99,93.992 38.499,95.152 39.528,95.554L40.255,93.691L40.982,91.827ZM47.177,98.171C48.236,98.485 49.349,97.882 49.664,96.824C49.979,95.765 49.376,94.651 48.317,94.337L47.747,96.254L47.177,98.171ZM55.842,96.275C54.764,96.037 53.697,96.719 53.459,97.798C53.222,98.876 53.904,99.944 54.982,100.181L55.412,98.228L55.842,96.275ZM62.883,101.654C63.974,101.822 64.996,101.074 65.164,99.983C65.333,98.891 64.585,97.869 63.493,97.701L63.188,99.677L62.883,101.654ZM71.228,98.67C70.129,98.563 69.15,99.367 69.043,100.467C68.936,101.566 69.74,102.544 70.839,102.651L71.034,100.661L71.228,98.67ZM78.856,103.199C79.96,103.235 80.885,102.37 80.922,101.267C80.959,100.163 80.094,99.238 78.99,99.201L78.923,101.2L78.856,103.199ZM86.754,99.239C85.65,99.26 84.772,100.172 84.793,101.277C84.814,102.381 85.727,103.259 86.831,103.238L86.793,101.238L86.754,99.239ZM94.705,102.949C95.808,102.892 96.656,101.951 96.599,100.848C96.542,99.745 95.601,98.897 94.498,98.954L94.602,100.951L94.705,102.949ZM102.28,98.467C101.178,98.546 100.349,99.503 100.428,100.605C100.507,101.707 101.465,102.535 102.567,102.456L102.423,100.461L102.28,98.467ZM110.41,101.841C111.511,101.749 112.328,100.782 112.236,99.681C112.144,98.58 111.177,97.763 110.076,97.855L110.41,101.841ZM117.88,97.175C116.78,97.273 115.968,98.245 116.066,99.345C116.165,100.445 117.137,101.257 118.237,101.159L118.058,99.167L117.88,97.175ZM126.051,100.452C127.151,100.353 127.962,99.38 127.862,98.28C127.763,97.18 126.79,96.369 125.69,96.469L125.87,98.46L126.051,100.452ZM133.508,95.77C132.408,95.866 131.594,96.836 131.69,97.937C131.787,99.037 132.757,99.851 133.857,99.755L133.683,97.762L133.508,95.77ZM141.659,99.095C142.76,99.006 143.58,98.041 143.491,96.94C143.402,95.839 142.437,95.019 141.336,95.108L141.498,97.101L141.659,99.095ZM149.175,94.508C148.074,94.587 147.244,95.544 147.323,96.646C147.402,97.747 148.358,98.577 149.46,98.498L149.318,96.503L149.175,94.508ZM157.262,97.989C158.364,97.924 159.206,96.978 159.141,95.875C159.076,94.773 158.13,93.931 157.027,93.996L157.145,95.992L157.262,97.989ZM164.892,93.595C163.788,93.642 162.932,94.575 162.98,95.679C163.027,96.782 163.96,97.638 165.063,97.591L164.978,95.593L164.892,93.595ZM172.864,97.328C173.968,97.302 174.842,96.385 174.816,95.281C174.789,94.177 173.873,93.303 172.768,93.329L172.864,97.328ZM180.654,93.226C179.55,93.228 178.656,94.125 178.658,95.229C178.66,96.334 179.557,97.228 180.661,97.226L180.658,95.226L180.654,93.226ZM188.45,97.31C189.555,97.336 190.471,96.463 190.498,95.358C190.524,94.254 189.651,93.337 188.546,93.311L188.498,95.31L188.45,97.31ZM196.44,93.615C195.337,93.556 194.395,94.402 194.335,95.505C194.276,96.608 195.122,97.55 196.225,97.61L196.332,95.613L196.44,93.615ZM203.976,98.157C205.076,98.254 206.047,97.44 206.144,96.34C206.241,95.24 205.427,94.269 204.327,94.172L204.151,96.164L203.976,98.157ZM212.197,95.018C211.102,94.878 210.1,95.653 209.96,96.748C209.82,97.844 210.595,98.846 211.691,98.985L212.197,95.018ZM219.355,100.134C220.443,100.323 221.478,99.594 221.667,98.505C221.855,97.417 221.126,96.382 220.038,96.193L219.696,98.164L219.355,100.134ZM227.827,97.744C226.75,97.5 225.679,98.176 225.435,99.253C225.192,100.331 225.867,101.402 226.945,101.645L227.386,99.695L227.827,97.744ZM234.428,103.562C235.489,103.867 236.598,103.254 236.903,102.193C237.209,101.131 236.596,100.023 235.534,99.718L234.981,101.64L234.428,103.562ZM243.119,102.166C242.079,101.792 240.933,102.331 240.559,103.37C240.185,104.41 240.725,105.555 241.764,105.929L242.441,104.048L243.119,102.166ZM248.904,108.792C249.913,109.241 251.095,108.787 251.544,107.777C251.993,106.768 251.539,105.586 250.53,105.137L249.717,106.965L248.904,108.792ZM257.704,108.677C256.734,108.148 255.519,108.505 254.99,109.475C254.461,110.444 254.818,111.659 255.788,112.188L256.746,110.433L257.704,108.677ZM262.349,116.146C263.268,116.759 264.51,116.509 265.122,115.59C265.734,114.671 265.485,113.429 264.565,112.817L263.457,114.482L262.349,116.146ZM271.032,117.57C270.174,116.875 268.915,117.007 268.219,117.865C267.524,118.723 267.656,119.982 268.514,120.678L271.032,117.57ZM274.214,125.772C275.001,126.547 276.267,126.538 277.042,125.751C277.818,124.964 277.808,123.698 277.021,122.923L275.618,124.347L274.214,125.772ZM282.461,128.833C281.753,127.985 280.492,127.871 279.644,128.578C278.796,129.286 278.682,130.547 279.39,131.395L280.925,130.114L282.461,128.833ZM284,137.491C284.624,138.403 285.869,138.636 286.78,138.012C287.691,137.388 287.925,136.143 287.301,135.232L285.65,136.361L284,137.491ZM291.517,142.037C290.978,141.073 289.759,140.729 288.795,141.268C287.832,141.808 287.487,143.026 288.027,143.99L289.772,143.014L291.517,142.037ZM291.476,150.82C291.933,151.825 293.119,152.27 294.124,151.813C295.13,151.356 295.575,150.171 295.118,149.165L293.297,149.992L291.476,150.82ZM298.131,156.544C297.752,155.506 296.604,154.972 295.566,155.351C294.529,155.73 293.995,156.878 294.374,157.916L296.252,157.23L298.131,156.544ZM296.598,165.157C296.829,166.237 297.892,166.925 298.972,166.694C300.052,166.463 300.74,165.4 300.509,164.32L298.554,164.739L296.598,165.157ZM301.468,172.34C301.43,171.236 300.504,170.372 299.4,170.41C298.297,170.448 297.432,171.374 297.471,172.478L299.469,172.409L301.468,172.34ZM297.211,179.94C297.105,181.04 297.91,182.017 299.009,182.123C300.109,182.23 301.086,181.425 301.192,180.325L299.202,180.133L297.211,179.94ZM300.042,188.179C300.25,187.094 299.538,186.046 298.453,185.839C297.368,185.631 296.321,186.343 296.113,187.427L298.078,187.803L300.042,188.179ZM294.435,194.843C294.159,195.913 294.803,197.003 295.873,197.279C296.942,197.554 298.033,196.911 298.308,195.841L296.372,195.342L294.435,194.843ZM296.181,203.387C296.501,202.33 295.905,201.213 294.848,200.892C293.791,200.572 292.674,201.169 292.353,202.226L294.267,202.806L296.181,203.387ZM290.018,209.537C289.669,210.585 290.236,211.717 291.284,212.066C292.332,212.415 293.464,211.849 293.813,210.801L291.916,210.169L290.018,209.537ZM291.292,218.163C291.657,217.12 291.108,215.979 290.065,215.614C289.023,215.25 287.882,215.799 287.517,216.841L289.404,217.502L291.292,218.163ZM284.933,224.133C284.562,225.174 285.104,226.318 286.145,226.689C287.185,227.06 288.329,226.518 288.701,225.478L286.817,224.806L284.933,224.133ZM286.103,232.759C286.473,231.718 285.929,230.575 284.888,230.205C283.847,229.835 282.704,230.379 282.334,231.42L284.218,232.09L286.103,232.759ZM279.761,238.738C279.399,239.782 279.952,240.921 280.996,241.283C282.039,241.645 283.179,241.092 283.54,240.049L281.651,239.394L279.761,238.738ZM281.057,247.358C281.405,246.31 280.837,245.178 279.789,244.83C278.74,244.482 277.608,245.05 277.261,246.098L281.057,247.358ZM274.873,253.508C274.544,254.563 275.133,255.684 276.187,256.013C277.242,256.341 278.363,255.753 278.692,254.698L276.783,254.103L274.873,253.508ZM276.482,262.073C276.787,261.012 276.173,259.904 275.111,259.599C274.049,259.295 272.942,259.909 272.637,260.97L274.56,261.522L276.482,262.073ZM270.587,268.488C270.312,269.558 270.955,270.649 272.025,270.924C273.095,271.2 274.185,270.556 274.461,269.487L272.524,268.988L270.587,268.488ZM272.657,276.95C272.9,275.872 272.223,274.802 271.145,274.56C270.067,274.317 268.997,274.994 268.755,276.072L272.657,276.95ZM267.171,283.72C266.967,284.805 267.681,285.851 268.766,286.056C269.851,286.261 270.897,285.547 271.102,284.462L269.137,284.091L267.171,283.72ZM269.823,292.019C269.987,290.926 269.233,289.909 268.141,289.745C267.048,289.582 266.03,290.336 265.867,291.428L267.845,291.724L269.823,292.019ZM264.871,299.189C264.753,300.287 265.548,301.273 266.646,301.39C267.745,301.508 268.73,300.713 268.848,299.615L266.859,299.402L264.871,299.189ZM268.2,307.24C268.269,306.138 267.431,305.188 266.329,305.119C265.226,305.05 264.277,305.888 264.208,306.99L268.2,307.24ZM263.9,314.819C263.883,315.923 264.764,316.833 265.868,316.85C266.973,316.867 267.882,315.986 267.9,314.882L265.9,314.85L263.9,314.819ZM267.964,322.525C267.928,321.421 267.004,320.555 265.9,320.592C264.796,320.628 263.93,321.552 263.966,322.656L265.965,322.591L267.964,322.525ZM264.42,330.483C264.511,331.584 265.478,332.402 266.579,332.311C267.679,332.219 268.497,331.253 268.406,330.152L266.413,330.318L264.42,330.483ZM269.232,337.745C269.084,336.65 268.078,335.882 266.983,336.029C265.888,336.177 265.12,337.184 265.268,338.278L267.25,338.012L269.232,337.745ZM266.512,346.02C266.715,347.105 267.76,347.821 268.845,347.618C269.931,347.415 270.647,346.37 270.444,345.284L266.512,346.02ZM272.038,352.752C271.78,351.678 270.7,351.017 269.626,351.275C268.552,351.533 267.891,352.612 268.149,353.686L270.093,353.219L272.038,352.752ZM270.136,361.366C270.415,362.435 271.507,363.075 272.576,362.797C273.645,362.518 274.285,361.426 274.007,360.357L272.071,360.861L270.136,361.366ZM275.981,368.148C275.717,367.075 274.634,366.419 273.562,366.683C272.489,366.946 271.833,368.03 272.097,369.102L275.981,368.148ZM273.938,376.863C274.183,377.939 275.255,378.613 276.332,378.368C277.409,378.122 278.083,377.05 277.837,375.973L275.887,376.418L273.938,376.863ZM279.553,383.835C279.328,382.754 278.269,382.059 277.188,382.284C276.107,382.509 275.412,383.568 275.637,384.649L279.553,383.835ZM277.171,392.463C277.371,393.55 278.414,394.268 279.5,394.068C280.586,393.868 281.305,392.825 281.104,391.738L279.138,392.101L277.171,392.463ZM282.465,399.683C282.293,398.592 281.269,397.847 280.178,398.019C279.087,398.191 278.342,399.215 278.514,400.306L280.489,399.994L282.465,399.683ZM279.638,408.175C279.777,409.27 280.778,410.045 281.874,409.906C282.97,409.766 283.745,408.765 283.605,407.669L281.621,407.922L279.638,408.175ZM284.493,415.696C284.39,414.596 283.416,413.787 282.316,413.89C281.216,413.992 280.407,414.966 280.51,416.066L282.501,415.881L284.493,415.696ZM281.094,423.974C281.154,425.077 282.096,425.923 283.199,425.863C284.302,425.804 285.148,424.861 285.088,423.758L281.094,423.974ZM285.35,431.848C285.339,430.744 284.435,429.857 283.33,429.868C282.226,429.879 281.339,430.783 281.35,431.887L283.35,431.868L285.35,431.848ZM281.231,439.79C281.186,440.893 282.044,441.825 283.147,441.87C284.251,441.915 285.182,441.057 285.228,439.953L283.229,439.871L281.231,439.79ZM284.667,448.052C284.776,446.953 283.973,445.974 282.873,445.865C281.774,445.756 280.795,446.559 280.686,447.658L282.677,447.855L284.667,448.052ZM279.661,455.462C279.481,456.551 280.218,457.581 281.308,457.761C282.397,457.942 283.427,457.205 283.607,456.115L281.634,455.788L279.661,455.462ZM281.984,464.104C282.245,463.031 281.586,461.95 280.513,461.689C279.439,461.428 278.358,462.087 278.097,463.161L280.041,463.633L281.984,464.104ZM275.939,470.699C275.59,471.747 276.158,472.879 277.206,473.228C278.254,473.576 279.386,473.009 279.735,471.961L275.939,470.699ZM276.806,479.604C277.249,478.592 276.787,477.412 275.775,476.97C274.763,476.528 273.584,476.99 273.141,478.002L274.974,478.803L276.806,479.604ZM269.673,484.992C269.134,485.956 269.479,487.175 270.443,487.714C271.407,488.253 272.625,487.909 273.165,486.945L271.419,485.969L269.673,484.992ZM268.801,493.891C269.436,492.987 269.218,491.74 268.314,491.105C267.41,490.47 266.163,490.688 265.528,491.592L267.165,492.742L268.801,493.891ZM260.725,497.729C260,498.563 260.088,499.826 260.921,500.551C261.755,501.276 263.018,501.188 263.743,500.354L262.234,499.042L260.725,497.729ZM258.049,506.263C258.854,505.508 258.895,504.242 258.139,503.436C257.383,502.631 256.117,502.59 255.312,503.346L256.68,504.805L258.049,506.263ZM249.361,508.407C248.486,509.081 248.324,510.337 248.999,511.212C249.673,512.086 250.929,512.249 251.804,511.574L250.582,509.99L249.361,508.407ZM245.108,516.272C246.039,515.678 246.312,514.442 245.718,513.51C245.124,512.579 243.888,512.306 242.956,512.9L245.108,516.272ZM236.185,516.838C235.209,517.355 234.836,518.565 235.353,519.541C235.87,520.517 237.081,520.89 238.057,520.373L237.121,518.605L236.185,516.838ZM230.734,523.911C231.745,523.466 232.204,522.286 231.759,521.275C231.314,520.264 230.134,519.805 229.123,520.25L229.928,522.081L230.734,523.911ZM221.83,523.178C220.793,523.557 220.259,524.705 220.638,525.743C221.017,526.78 222.165,527.314 223.203,526.935L222.516,525.056L221.83,523.178ZM215.504,529.496C216.561,529.177 217.16,528.061 216.84,527.003C216.521,525.946 215.405,525.347 214.348,525.667L214.926,527.581L215.504,529.496ZM206.699,527.761C205.627,528.026 204.973,529.11 205.238,530.182C205.503,531.254 206.587,531.909 207.659,531.644L207.179,529.702L206.699,527.761ZM199.729,533.412C200.812,533.195 201.515,532.142 201.298,531.059C201.082,529.976 200.028,529.273 198.945,529.49L199.729,533.412ZM191.208,530.874C190.117,531.048 189.373,532.073 189.547,533.164C189.72,534.255 190.745,534.998 191.836,534.825L191.522,532.85L191.208,530.874ZM183.832,535.949C184.929,535.814 185.709,534.817 185.574,533.72C185.44,532.624 184.442,531.844 183.346,531.978L183.589,533.964L183.832,535.949ZM175.382,532.822C174.282,532.921 173.471,533.893 173.57,534.993C173.668,536.093 174.641,536.905 175.741,536.806L175.561,534.814L175.382,532.822ZM167.789,537.405C168.892,537.338 169.731,536.389 169.663,535.287C169.596,534.184 168.647,533.345 167.545,533.413L167.789,537.405ZM159.55,533.795C158.446,533.834 157.582,534.76 157.621,535.864C157.66,536.968 158.586,537.832 159.69,537.793L159.55,533.795ZM151.675,537.977C152.779,537.964 153.664,537.059 153.652,535.954C153.639,534.85 152.734,533.965 151.629,533.977L151.675,537.977ZM143.644,534.032C142.54,534.049 141.659,534.959 141.677,536.064C141.694,537.168 142.604,538.049 143.709,538.031L143.676,536.031L143.644,534.032ZM136.011,538.285C137.114,538.229 137.963,537.29 137.908,536.187C137.853,535.084 136.914,534.234 135.811,534.29L135.911,536.287L136.011,538.285ZM127.987,534.82C126.887,534.915 126.071,535.884 126.166,536.984C126.261,538.085 127.23,538.9 128.33,538.806L128.159,536.813L127.987,534.82ZM120.68,539.61C121.776,539.473 122.553,538.474 122.417,537.378C122.28,536.282 121.281,535.504 120.185,535.641L120.432,537.625L120.68,539.61ZM112.417,536.77C111.327,536.951 110.591,537.981 110.772,539.071C110.954,540.161 111.984,540.897 113.074,540.715L112.745,538.742L112.417,536.77ZM105.527,542.141C106.608,541.912 107.298,540.85 107.069,539.769C106.84,538.689 105.778,537.999 104.698,538.228L105.113,540.184L105.527,542.141ZM97.047,540.037C95.978,540.317 95.339,541.41 95.619,542.478C95.899,543.547 96.992,544.186 98.06,543.907L97.554,541.972L97.047,540.037ZM90.695,546.034C91.748,545.7 92.331,544.576 91.998,543.523C91.664,542.47 90.54,541.887 89.487,542.221L90.091,544.127L90.695,546.034ZM82.046,544.802C81.013,545.192 80.492,546.347 80.882,547.38C81.273,548.413 82.427,548.934 83.46,548.543L82.753,546.673L82.046,544.802ZM76.387,551.454C77.395,551.004 77.848,549.821 77.397,548.813C76.947,547.804 75.764,547.352 74.756,547.802L76.387,551.454ZM67.653,551.241C66.675,551.753 66.297,552.962 66.809,553.94C67.322,554.919 68.531,555.297 69.509,554.784L68.581,553.013L67.653,551.241ZM62.866,558.546C63.809,557.97 64.106,556.739 63.53,555.797C62.953,554.854 61.722,554.557 60.78,555.133L61.823,556.84L62.866,558.546ZM54.181,559.488C53.281,560.128 53.07,561.377 53.71,562.277C54.351,563.177 55.599,563.388 56.499,562.747L55.34,561.118L54.181,559.488ZM50.453,567.386C51.304,566.682 51.423,565.422 50.72,564.57C50.016,563.719 48.755,563.6 47.904,564.303L49.178,565.845L50.453,567.386ZM41.997,569.566C41.201,570.331 41.175,571.597 41.94,572.394C42.705,573.191 43.971,573.216 44.768,572.451L43.382,571.009L41.997,569.566ZM39.479,577.925C40.216,577.103 40.146,575.838 39.324,575.101C38.501,574.364 37.237,574.433 36.5,575.256L37.989,576.591L39.479,577.925ZM31.445,581.342C30.771,582.217 30.935,583.473 31.81,584.146C32.685,584.82 33.941,584.656 34.615,583.781L33.03,582.561L31.445,581.342ZM30.197,589.983C30.804,589.061 30.549,587.821 29.626,587.213C28.704,586.606 27.464,586.861 26.856,587.783L28.526,588.883L30.197,589.983ZM22.747,594.536C22.206,595.5 22.549,596.719 23.512,597.259C24.476,597.8 25.695,597.457 26.235,596.494L24.491,595.515L22.747,594.536ZM22.732,603.271C23.206,602.273 22.781,601.08 21.783,600.606C20.786,600.132 19.593,600.557 19.119,601.555L20.925,602.413L22.732,603.271ZM15.963,608.793C15.553,609.819 16.053,610.983 17.079,611.392C18.105,611.801 19.269,611.301 19.678,610.275L17.82,609.534L15.963,608.793ZM17.06,617.469C17.406,616.42 16.837,615.289 15.789,614.942C14.74,614.595 13.609,615.164 13.262,616.213L15.161,616.841L17.06,617.469ZM10.995,623.777C10.708,624.844 11.339,625.942 12.405,626.229C13.472,626.517 14.57,625.886 14.857,624.819L12.926,624.298L10.995,623.777ZM13.061,632.241C13.294,631.161 12.607,630.097 11.527,629.865C10.447,629.632 9.383,630.319 9.151,631.399L11.106,631.82L13.061,632.241ZM7.685,639.099C7.504,640.189 8.241,641.219 9.33,641.4C10.42,641.581 11.45,640.844 11.631,639.755L9.658,639.427L7.685,639.099ZM10.541,647.35C10.675,646.253 9.894,645.257 8.797,645.123C7.701,644.99 6.704,645.771 6.571,646.868L10.541,647.35ZM5.782,654.701C5.693,655.802 6.513,656.767 7.614,656.855C8.715,656.944 9.68,656.124 9.769,655.023L5.782,654.701ZM9.294,662.71C9.342,661.606 8.486,660.673 7.383,660.625C6.279,660.577 5.346,661.433 5.298,662.537L7.296,662.623L9.294,662.71ZM5.095,670.325C5.084,671.43 5.971,672.334 7.076,672.344C8.181,672.354 9.084,671.467 9.095,670.363L5.095,670.325ZM9.146,678.082C9.121,676.977 8.206,676.102 7.102,676.127C5.998,676.151 5.122,677.066 5.147,678.17L9.146,678.082ZM5.437,686.02C5.494,687.123 6.435,687.971 7.538,687.914C8.641,687.858 9.489,686.917 9.432,685.814L7.435,685.917L5.437,686.02ZM9.929,693.458C9.843,692.357 8.881,691.534 7.779,691.62C6.678,691.706 5.855,692.669 5.942,693.77L9.929,693.458ZM6.655,701.601C6.769,702.7 7.752,703.498 8.851,703.385C9.949,703.271 10.748,702.288 10.634,701.189L8.644,701.395L6.655,701.601ZM11.515,708.824C11.376,707.729 10.375,706.953 9.279,707.092C8.183,707.232 7.408,708.233 7.547,709.328L11.515,708.824ZM8.905,717.365C9.198,718.43 10.299,719.056 11.364,718.763C12.429,718.469 13.055,717.368 12.762,716.303L10.834,716.834L8.905,717.365ZM15.648,722.745C15.04,721.823 13.799,721.57 12.877,722.179C11.956,722.787 11.702,724.028 12.311,724.95L13.98,723.847L15.648,722.745ZM17.953,731.064C18.817,731.752 20.075,731.61 20.763,730.746C21.452,729.882 21.309,728.624 20.446,727.935L19.199,729.5L17.953,731.064ZM26.63,731.717C25.632,731.245 24.44,731.672 23.968,732.671C23.496,733.669 23.923,734.862 24.922,735.333L26.63,731.717ZM32.429,738.171C33.487,738.489 34.603,737.89 34.921,736.832C35.239,735.774 34.64,734.659 33.582,734.34L33.006,736.256L32.429,738.171ZM40.902,736.144C39.819,735.927 38.765,736.628 38.548,737.711C38.331,738.794 39.032,739.848 40.115,740.066L40.902,736.144ZM47.888,741.365C48.982,741.517 49.992,740.753 50.144,739.659C50.295,738.565 49.531,737.555 48.437,737.403L47.888,741.365ZM56.056,738.3C54.957,738.19 53.977,738.992 53.867,740.091C53.757,741.19 54.559,742.17 55.658,742.28L55.857,740.29L56.056,738.3ZM63.402,742.956C64.503,743.041 65.465,742.217 65.549,741.116C65.634,740.014 64.81,739.053 63.709,738.968L63.555,740.962L63.402,742.956ZM71.403,739.51C70.301,739.437 69.349,740.272 69.277,741.375C69.205,742.477 70.04,743.429 71.142,743.501L71.272,741.505L71.403,739.51ZM78.871,743.992C79.974,744.061 80.924,743.224 80.993,742.122C81.062,741.019 80.225,740.069 79.123,740L78.997,741.996L78.871,743.992ZM86.858,740.503C85.756,740.428 84.802,741.26 84.727,742.362C84.652,743.464 85.484,744.418 86.586,744.494L86.722,742.498L86.858,740.503ZM94.282,745.062C95.383,745.151 96.348,744.331 96.437,743.23C96.525,742.129 95.705,741.164 94.604,741.075L94.443,743.069L94.282,745.062ZM102.353,741.771C101.254,741.661 100.274,742.463 100.164,743.562C100.054,744.661 100.856,745.641 101.955,745.751L102.353,741.771ZM109.596,746.611C110.692,746.749 111.693,745.973 111.831,744.877C111.969,743.781 111.193,742.781 110.097,742.642L109.847,744.627L109.596,746.611ZM117.827,743.745C116.736,743.57 115.71,744.313 115.535,745.403C115.36,746.494 116.103,747.52 117.193,747.695L117.827,743.745ZM124.729,749.058C125.811,749.278 126.867,748.579 127.087,747.496C127.306,746.414 126.607,745.358 125.525,745.138L124.729,749.058ZM133.167,746.884C132.097,746.611 131.007,747.256 130.734,748.326C130.46,749.396 131.106,750.486 132.176,750.759L132.671,748.822L133.167,746.884ZM139.499,752.861C140.55,753.198 141.676,752.619 142.014,751.567C142.351,750.515 141.771,749.389 140.72,749.052L140.109,750.956L139.499,752.861ZM148.134,751.711C147.108,751.301 145.944,751.8 145.534,752.826C145.124,753.851 145.623,755.015 146.648,755.425L148.134,751.711ZM153.561,758.514C154.55,759.006 155.751,758.603 156.243,757.615C156.735,756.626 156.332,755.425 155.343,754.933L154.452,756.723L153.561,758.514ZM162.264,758.777C161.324,758.196 160.092,758.486 159.511,759.426C158.93,760.365 159.22,761.598 160.16,762.179L162.264,758.777ZM166.357,766.453C167.232,767.127 168.488,766.962 169.161,766.086C169.834,765.211 169.67,763.955 168.794,763.282L167.575,764.868L166.357,766.453ZM174.826,768.454C174.028,767.69 172.762,767.719 171.998,768.517C171.235,769.315 171.263,770.581 172.061,771.345L173.444,769.899L174.826,768.454ZM177.195,776.825C177.904,777.671 179.166,777.782 180.012,777.073C180.859,776.363 180.97,775.102 180.26,774.255L178.727,775.54L177.195,776.825ZM185.025,780.609C184.41,779.691 183.168,779.445 182.25,780.059C181.332,780.674 181.086,781.916 181.701,782.834L183.363,781.721L185.025,780.609ZM185.555,789.289C186.074,790.264 187.284,790.635 188.26,790.117C189.235,789.599 189.606,788.388 189.088,787.412L187.322,788.351L185.555,789.289ZM192.462,794.561C192.036,793.542 190.865,793.06 189.846,793.485C188.826,793.91 188.345,795.081 188.77,796.101L192.462,794.561ZM191.734,803.585C192.175,804.598 193.353,805.062 194.366,804.621C195.379,804.18 195.842,803.001 195.401,801.988L193.567,802.787L191.734,803.585ZM198.943,808.881C198.373,807.935 197.144,807.629 196.198,808.199C195.251,808.768 194.946,809.997 195.515,810.944L197.229,809.912L198.943,808.881ZM200.295,817.724C200.996,818.577 202.257,818.699 203.11,817.998C203.963,817.296 204.086,816.036 203.384,815.183L201.839,816.453L200.295,817.724ZM208.733,820.754C207.909,820.018 206.644,820.09 205.909,820.913C205.173,821.737 205.245,823.002 206.068,823.737L207.401,822.246L208.733,820.754ZM212.671,828.799C213.594,829.405 214.834,829.148 215.44,828.225C216.046,827.301 215.789,826.061 214.866,825.455L213.768,827.127L212.671,828.799ZM221.63,829.269C220.635,828.789 219.44,829.207 218.96,830.202C218.48,831.197 218.898,832.393 219.893,832.872L220.762,831.07L221.63,829.269ZM227.525,836.024C228.567,836.39 229.708,835.842 230.074,834.8C230.441,833.758 229.892,832.616 228.85,832.25L228.187,834.137L227.525,836.024ZM236.361,834.501C235.29,834.23 234.203,834.878 233.932,835.949C233.661,837.02 234.31,838.108 235.381,838.379L236.361,834.501ZM243.374,840.086C244.462,840.28 245.5,839.555 245.694,838.467C245.887,837.38 245.162,836.342 244.075,836.148L243.725,838.117L243.374,840.086ZM251.915,837.307C250.819,837.175 249.823,837.957 249.691,839.054C249.559,840.15 250.341,841.146 251.437,841.278L251.676,839.293L251.915,837.307ZM259.527,842.066C260.628,842.151 261.59,841.326 261.674,840.225C261.758,839.123 260.933,838.162 259.832,838.078L259.68,840.072L259.527,842.066ZM267.794,838.549C266.69,838.501 265.757,839.357 265.709,840.46C265.661,841.564 266.517,842.497 267.62,842.545L267.794,838.549ZM275.705,842.793C276.809,842.814 277.722,841.936 277.743,840.831C277.764,839.727 276.886,838.815 275.782,838.793L275.743,840.793L275.705,842.793ZM283.783,838.876C282.678,838.873 281.781,839.766 281.778,840.871C281.775,841.975 282.668,842.873 283.773,842.876L283.783,838.876ZM291.827,842.853C292.931,842.845 293.82,841.943 293.812,840.838C293.804,839.733 292.902,838.845 291.798,838.853L291.812,840.853L291.827,842.853ZM299.826,838.775C298.721,838.787 297.836,839.692 297.848,840.797C297.86,841.901 298.765,842.787 299.87,842.775L299.826,838.775ZM307.902,842.691C309.006,842.681 309.894,841.777 309.884,840.673C309.874,839.568 308.971,838.681 307.866,838.691L307.902,842.691ZM315.92,838.648C314.815,838.649 313.92,839.545 313.921,840.649C313.922,841.754 314.818,842.649 315.923,842.648L315.921,840.648L315.92,838.648ZM323.932,842.693C325.037,842.708 325.944,841.825 325.959,840.72C325.973,839.616 325.09,838.708 323.986,838.694L323.959,840.694L323.932,842.693ZM332.063,838.881C330.959,838.843 330.034,839.707 329.996,840.811C329.959,841.915 330.823,842.841 331.927,842.878L331.995,840.879L332.063,838.881ZM333.567,1028.66C332.516,1029 331.942,1030.13 332.283,1031.18C332.625,1032.23 333.753,1032.81 334.804,1032.47L334.185,1030.56L333.567,1028.66ZM327.235,1034.68C328.303,1034.4 328.942,1033.31 328.662,1032.24C328.381,1031.17 327.288,1030.53 326.219,1030.81L326.727,1032.75L327.235,1034.68ZM318.756,1032.58C317.676,1032.81 316.987,1033.87 317.218,1034.95C317.449,1036.03 318.511,1036.72 319.592,1036.49L319.174,1034.54L318.756,1032.58ZM311.902,1037.99C312.989,1037.8 313.713,1036.76 313.518,1035.67C313.324,1034.58 312.285,1033.86 311.197,1034.05L311.55,1036.02L311.902,1037.99ZM303.571,1035.33C302.48,1035.51 301.737,1036.53 301.911,1037.62C302.086,1038.72 303.111,1039.46 304.202,1039.28L303.886,1037.31L303.571,1035.33ZM296.532,1040.49C297.623,1040.32 298.369,1039.29 298.197,1038.2C298.025,1037.11 297.001,1036.37 295.91,1036.54L296.221,1038.51L296.532,1040.49ZM288.203,1037.81C287.115,1038 286.387,1039.03 286.577,1040.12C286.767,1041.21 287.803,1041.94 288.891,1041.75L288.203,1037.81ZM281.35,1043.2C282.43,1042.97 283.117,1041.9 282.886,1040.82C282.654,1039.74 281.591,1039.06 280.511,1039.29L280.93,1041.24L281.35,1043.2ZM272.837,1041.17C271.774,1041.47 271.155,1042.57 271.454,1043.64C271.754,1044.7 272.858,1045.32 273.921,1045.02L273.379,1043.1L272.837,1041.17ZM266.723,1047.39C267.755,1046.99 268.272,1045.84 267.877,1044.8C267.482,1043.77 266.326,1043.26 265.294,1043.65L266.009,1045.52L266.723,1047.39ZM257.999,1046.93C257.021,1047.44 256.644,1048.65 257.158,1049.63C257.671,1050.61 258.88,1050.98 259.858,1050.47L258.929,1048.7L257.999,1046.93ZM253.487,1054.39C254.385,1053.74 254.592,1052.49 253.948,1051.6C253.305,1050.7 252.056,1050.49 251.158,1051.13L252.322,1052.76L253.487,1054.39ZM244.973,1056.29C244.178,1057.05 244.155,1058.32 244.922,1059.11C245.689,1059.91 246.955,1059.93 247.75,1059.17L246.361,1057.73L244.973,1056.29ZM242.745,1064.72C243.427,1063.85 243.276,1062.59 242.407,1061.91C241.538,1061.23 240.281,1061.38 239.599,1062.25L241.172,1063.48L242.745,1064.72ZM235.067,1068.82C234.495,1069.77 234.796,1071 235.741,1071.57C236.685,1072.14 237.915,1071.84 238.488,1070.9L236.777,1069.86L235.067,1068.82ZM234.905,1077.57C235.379,1076.57 234.956,1075.38 233.958,1074.9C232.961,1074.43 231.768,1074.85 231.293,1075.85L234.905,1077.57ZM228.187,1083.16C227.796,1084.2 228.316,1085.35 229.349,1085.74C230.382,1086.13 231.537,1085.61 231.928,1084.58L230.057,1083.87L228.187,1083.16ZM229.473,1091.81C229.794,1090.75 229.198,1089.64 228.141,1089.32C227.084,1088.99 225.967,1089.59 225.646,1090.65L227.559,1091.23L229.473,1091.81ZM223.573,1098.23C223.31,1099.3 223.966,1100.38 225.039,1100.64C226.112,1100.91 227.195,1100.25 227.458,1099.18L225.516,1098.7L223.573,1098.23ZM225.808,1106.64C226.023,1105.56 225.319,1104.51 224.235,1104.29C223.152,1104.08 222.099,1104.78 221.884,1105.86L225.808,1106.64ZM220.511,1113.56C220.337,1114.65 221.08,1115.68 222.171,1115.85C223.262,1116.02 224.287,1115.28 224.461,1114.19L222.486,1113.87L220.511,1113.56ZM223.369,1121.83C223.508,1120.73 222.733,1119.73 221.637,1119.59C220.541,1119.45 219.54,1120.23 219.401,1121.32L221.385,1121.58L223.369,1121.83ZM218.512,1129.19C218.403,1130.29 219.205,1131.27 220.304,1131.37C221.403,1131.48 222.383,1130.68 222.493,1129.58L220.502,1129.38L218.512,1129.19ZM221.828,1137.17C221.912,1136.07 221.087,1135.11 219.986,1135.02C218.884,1134.94 217.923,1135.76 217.839,1136.87L219.834,1137.02L221.828,1137.17ZM217.234,1144.7C217.121,1145.8 217.919,1146.79 219.018,1146.9C220.117,1147.01 221.099,1146.21 221.213,1145.12L219.223,1144.91L217.234,1144.7ZM220.068,1152.97C220.276,1151.88 219.565,1150.84 218.48,1150.63C217.395,1150.42 216.347,1151.13 216.139,1152.22L218.103,1152.59L220.068,1152.97ZM214.337,1159.58C214.017,1160.64 214.615,1161.76 215.672,1162.08C216.73,1162.4 217.846,1161.8 218.166,1160.74L216.251,1160.16L214.337,1159.58ZM215.39,1168.26C215.837,1167.25 215.38,1166.07 214.37,1165.63C213.36,1165.18 212.179,1165.64 211.732,1166.65L213.561,1167.45L215.39,1168.26ZM208.244,1173.28C207.662,1174.22 207.952,1175.45 208.891,1176.03C209.831,1176.61 211.063,1176.32 211.645,1175.38L209.944,1174.33L208.244,1173.28ZM206.907,1181.92C207.619,1181.08 207.512,1179.81 206.667,1179.1C205.823,1178.39 204.561,1178.5 203.849,1179.34L206.907,1181.92ZM198.623,1184.7C197.797,1185.44 197.724,1186.7 198.458,1187.53C199.193,1188.35 200.457,1188.42 201.282,1187.69L199.952,1186.2L198.623,1184.7ZM194.935,1192.62C195.849,1192 196.086,1190.76 195.465,1189.85C194.843,1188.93 193.599,1188.7 192.686,1189.32L193.811,1190.97L194.935,1192.62ZM186.202,1193.2C185.225,1193.72 184.851,1194.93 185.366,1195.9C185.882,1196.88 187.091,1197.25 188.068,1196.74L186.202,1193.2ZM180.862,1200.11C181.882,1199.69 182.367,1198.52 181.944,1197.5C181.521,1196.48 180.351,1195.99 179.331,1196.41L180.096,1198.26L180.862,1200.11ZM172.156,1199.06C171.107,1199.41 170.535,1200.54 170.879,1201.59C171.224,1202.64 172.353,1203.21 173.403,1202.86L172.78,1200.96L172.156,1199.06ZM165.834,1205.08C166.903,1204.8 167.542,1203.71 167.263,1202.64C166.983,1201.57 165.89,1200.93 164.822,1201.21L165.328,1203.15L165.834,1205.08ZM157.337,1202.97C156.256,1203.19 155.563,1204.25 155.789,1205.33C156.015,1206.42 157.075,1207.11 158.156,1206.88L157.747,1204.93L157.337,1202.97ZM150.405,1208.33C151.494,1208.15 152.23,1207.12 152.048,1206.03C151.866,1204.94 150.835,1204.21 149.746,1204.39L150.075,1206.36L150.405,1208.33ZM142.132,1205.53C141.037,1205.67 140.267,1206.68 140.413,1207.77C140.559,1208.87 141.565,1209.64 142.66,1209.49L142.132,1205.53ZM134.882,1210.42C135.981,1210.3 136.777,1209.32 136.661,1208.22C136.545,1207.12 135.561,1206.32 134.463,1206.44L134.672,1208.43L134.882,1210.42ZM126.757,1207.16C125.656,1207.25 124.838,1208.22 124.929,1209.32C125.02,1210.42 125.986,1211.24 127.086,1211.15L126.922,1209.15L126.757,1207.16ZM119.283,1211.72C120.385,1211.65 121.221,1210.69 121.151,1209.59C121.081,1208.49 120.13,1207.65 119.028,1207.72L119.155,1209.72L119.283,1211.72ZM111.284,1208.16C110.181,1208.21 109.329,1209.15 109.382,1210.25C109.435,1211.35 110.373,1212.2 111.476,1212.15L111.38,1210.15L111.284,1208.16ZM103.671,1212.47C104.775,1212.44 105.638,1211.51 105.599,1210.41C105.561,1209.3 104.634,1208.44 103.53,1208.48L103.601,1210.48L103.671,1212.47ZM95.771,1208.71C94.667,1208.73 93.793,1209.65 93.82,1210.76C93.847,1211.86 94.764,1212.73 95.869,1212.71L95.771,1208.71ZM88.069,1212.86C89.174,1212.84 90.055,1211.93 90.038,1210.83C90.021,1209.73 89.111,1208.84 88.007,1208.86L88.038,1210.86L88.069,1212.86ZM80.239,1208.95C79.135,1208.96 78.247,1209.87 78.256,1210.97C78.265,1212.08 79.168,1212.96 80.273,1212.95L80.256,1210.95L80.239,1208.95ZM72.478,1213C73.582,1212.99 74.476,1212.09 74.473,1210.99C74.47,1209.89 73.573,1208.99 72.468,1209L72.478,1213ZM64.643,1209.07C63.539,1209.12 62.685,1210.06 62.734,1211.16C62.783,1212.26 63.718,1213.12 64.822,1213.07L64.732,1211.07L64.643,1209.07ZM57.434,1213.79C58.526,1213.63 59.277,1212.61 59.111,1211.51C58.945,1210.42 57.925,1209.67 56.833,1209.84L57.133,1211.81L57.434,1213.79ZM49.148,1211.43C48.08,1211.72 47.444,1212.81 47.727,1213.88C48.01,1214.95 49.105,1215.58 50.172,1215.3L49.66,1213.37L49.148,1211.43ZM43.125,1217.59C44.155,1217.19 44.666,1216.03 44.267,1215C43.868,1213.97 42.71,1213.46 41.68,1213.86L42.402,1215.72L43.125,1217.59ZM34.525,1217.11C33.547,1217.62 33.17,1218.83 33.683,1219.81C34.197,1220.79 35.406,1221.16 36.384,1220.65L35.454,1218.88L34.525,1217.11ZM30.043,1224.46C30.954,1223.84 31.188,1222.59 30.565,1221.68C29.942,1220.77 28.697,1220.54 27.785,1221.16L28.914,1222.81L30.043,1224.46ZM21.564,1225.98C20.733,1226.71 20.649,1227.97 21.376,1228.8C22.104,1229.63 23.368,1229.72 24.199,1228.99L22.881,1227.48L21.564,1225.98ZM18.948,1234.18C19.684,1233.36 19.613,1232.1 18.789,1231.36C17.965,1230.62 16.701,1230.7 15.965,1231.52L17.456,1232.85L18.948,1234.18ZM11.091,1237.71C10.464,1238.62 10.692,1239.87 11.601,1240.5C12.51,1241.12 13.756,1240.89 14.383,1239.98L12.737,1238.85L11.091,1237.71ZM10.586,1246.31C11.094,1245.33 10.709,1244.12 9.728,1243.61C8.747,1243.11 7.54,1243.49 7.033,1244.47L8.81,1245.39L10.586,1246.31ZM3.865,1251.69C3.486,1252.73 4.02,1253.88 5.057,1254.26C6.095,1254.63 7.243,1254.1 7.622,1253.06L5.743,1252.38L3.865,1251.69ZM5.532,1260.14C5.778,1259.06 5.105,1257.99 4.028,1257.74C2.951,1257.5 1.879,1258.17 1.633,1259.25L3.583,1259.69L5.532,1260.14ZM0.351,1267.02C0.237,1268.11 1.036,1269.1 2.135,1269.21C3.233,1269.32 4.216,1268.53 4.33,1267.43L2.34,1267.22L0.351,1267.02ZM4,1274.83C3.986,1273.72 3.079,1272.84 1.974,1272.85C0.87,1272.87 -0.014,1273.77 0,1274.88L2,1274.85L4,1274.83ZM0.531,1282.7C0.664,1283.8 1.662,1284.58 2.758,1284.44C3.855,1284.31 4.635,1283.31 4.501,1282.22L2.516,1282.46L0.531,1282.7ZM5.774,1289.53C5.531,1288.46 4.461,1287.78 3.383,1288.02C2.306,1288.27 1.629,1289.34 1.872,1290.41L3.823,1289.97L5.774,1289.53ZM3.944,1297.96C4.285,1299.01 5.413,1299.58 6.463,1299.24C7.514,1298.9 8.09,1297.78 7.75,1296.73L5.847,1297.34L3.944,1297.96ZM10.346,1303.72C9.919,1302.7 8.748,1302.22 7.729,1302.64C6.71,1303.07 6.229,1304.24 6.656,1305.26L8.501,1304.49L10.346,1303.72ZM10.029,1312.45C10.545,1313.43 11.755,1313.8 12.732,1313.29C13.708,1312.77 14.081,1311.56 13.565,1310.58L11.797,1311.52L10.029,1312.45ZM17.46,1317.06C16.837,1316.15 15.593,1315.91 14.68,1316.53C13.768,1317.16 13.533,1318.4 14.156,1319.31L15.808,1318.19L17.46,1317.06ZM19.1,1325.68C19.832,1326.5 21.096,1326.58 21.924,1325.85C22.751,1325.12 22.829,1323.85 22.097,1323.03L20.599,1324.35L19.1,1325.68ZM27.441,1328.33C26.608,1327.6 25.344,1327.69 24.619,1328.52C23.895,1329.36 23.983,1330.62 24.817,1331.35L27.441,1328.33ZM31.224,1336.22C32.144,1336.83 33.385,1336.58 33.997,1335.66C34.608,1334.74 34.357,1333.5 33.437,1332.89L32.331,1334.56L31.224,1336.22ZM39.983,1336.68C38.996,1336.19 37.794,1336.58 37.298,1337.57C36.802,1338.56 37.2,1339.76 38.186,1340.26L39.983,1336.68ZM45.515,1343.46C46.549,1343.84 47.703,1343.32 48.091,1342.29C48.48,1341.25 47.957,1340.1 46.923,1339.71L46.219,1341.58L45.515,1343.46ZM54.174,1342.06C53.109,1341.76 52.008,1342.39 51.715,1343.45C51.421,1344.52 52.047,1345.62 53.112,1345.91L53.643,1343.98L54.174,1342.06ZM60.876,1347.72C61.96,1347.93 63.01,1347.23 63.221,1346.14C63.432,1345.06 62.724,1344.01 61.639,1343.8L60.876,1347.72ZM69.197,1345.01C68.101,1344.87 67.098,1345.64 66.957,1346.74C66.815,1347.83 67.588,1348.84 68.684,1348.98L68.94,1347L69.197,1345.01ZM76.543,1349.78C77.644,1349.86 78.605,1349.04 78.689,1347.94C78.773,1346.84 77.948,1345.87 76.846,1345.79L76.695,1347.78L76.543,1349.78ZM84.55,1346.2C83.446,1346.17 82.522,1347.03 82.487,1348.14C82.452,1349.24 83.318,1350.16 84.422,1350.2L84.486,1348.2L84.55,1346.2ZM92.3,1350.3C93.404,1350.3 94.295,1349.4 94.29,1348.29C94.284,1347.19 93.385,1346.3 92.28,1346.3L92.29,1348.3L92.3,1350.3ZM100.021,1346.14C98.917,1346.18 98.054,1347.11 98.094,1348.21C98.133,1349.31 99.06,1350.18 100.164,1350.14L100.092,1348.14L100.021,1346.14ZM108.009,1349.75C109.112,1349.68 109.95,1348.73 109.881,1347.63C109.813,1346.53 108.864,1345.69 107.761,1345.76L107.885,1347.75L108.009,1349.75ZM115.497,1345.19C114.396,1345.28 113.579,1346.25 113.672,1347.35C113.765,1348.45 114.733,1349.27 115.834,1349.17L115.665,1347.18L115.497,1345.19ZM123.638,1348.44C124.737,1348.32 125.535,1347.34 125.422,1346.24C125.308,1345.14 124.325,1344.34 123.226,1344.46L123.638,1348.44ZM130.95,1343.59C129.853,1343.72 129.071,1344.72 129.203,1345.82C129.334,1346.91 130.33,1347.7 131.427,1347.56L131.188,1345.58L130.95,1343.59ZM139.203,1346.57C140.298,1346.43 141.066,1345.42 140.919,1344.33C140.772,1343.23 139.765,1342.46 138.671,1342.61L139.203,1346.57ZM146.391,1341.52C145.298,1341.68 144.542,1342.7 144.702,1343.79C144.862,1344.89 145.878,1345.64 146.971,1345.48L146.391,1341.52ZM154.709,1344.31C155.8,1344.14 156.546,1343.11 156.374,1342.02C156.203,1340.93 155.179,1340.18 154.088,1340.36L154.399,1342.33L154.709,1344.31ZM161.753,1339.12C160.663,1339.3 159.927,1340.33 160.108,1341.42C160.289,1342.51 161.319,1343.24 162.409,1343.06L161.753,1339.12ZM170.11,1341.75C171.199,1341.56 171.927,1340.53 171.738,1339.44C171.548,1338.35 170.513,1337.62 169.424,1337.81L170.11,1341.75ZM177.108,1336.45C176.021,1336.64 175.299,1337.68 175.495,1338.77C175.692,1339.86 176.733,1340.58 177.82,1340.38L177.464,1338.41L177.108,1336.45ZM185.526,1338.96C186.612,1338.76 187.328,1337.72 187.125,1336.63C186.922,1335.55 185.878,1334.83 184.792,1335.03L185.159,1337L185.526,1338.96ZM192.422,1333.59C191.337,1333.8 190.626,1334.84 190.834,1335.93C191.042,1337.01 192.09,1337.72 193.174,1337.52L192.798,1335.55L192.422,1333.59ZM200.842,1336.03C201.926,1335.82 202.632,1334.77 202.42,1333.68C202.208,1332.6 201.157,1331.89 200.073,1332.11L200.457,1334.07L200.842,1336.03ZM207.75,1330.59C206.667,1330.8 205.964,1331.86 206.18,1332.94C206.396,1334.02 207.449,1334.73 208.533,1334.51L208.141,1332.55L207.75,1330.59ZM216.166,1332.98C217.249,1332.76 217.949,1331.7 217.73,1330.62C217.511,1329.54 216.456,1328.84 215.373,1329.06L215.77,1331.02L216.166,1332.98ZM223.009,1327.5C221.927,1327.72 221.229,1328.78 221.45,1329.86C221.672,1330.94 222.729,1331.64 223.811,1331.42L223.009,1327.5ZM231.489,1329.84C232.571,1329.62 233.267,1328.56 233.043,1327.48C232.82,1326.4 231.762,1325.7 230.68,1325.92L231.085,1327.88L231.489,1329.84ZM238.291,1324.35C237.209,1324.57 236.515,1325.63 236.74,1326.71C236.965,1327.79 238.024,1328.49 239.106,1328.26L238.698,1326.3L238.291,1324.35ZM246.953,1326.68C248.04,1326.49 248.762,1325.45 248.567,1324.36C248.371,1323.27 247.331,1322.55 246.244,1322.75L246.598,1324.71L246.953,1326.68ZM254.252,1321.54C253.155,1321.67 252.374,1322.67 252.507,1323.76C252.64,1324.86 253.637,1325.64 254.733,1325.51L254.493,1323.52L254.252,1321.54ZM262.489,1324.81C263.591,1324.75 264.433,1323.8 264.369,1322.7C264.305,1321.59 263.36,1320.75 262.257,1320.82L262.373,1322.81L262.489,1324.81ZM270.387,1320.62C269.282,1320.61 268.377,1321.49 268.365,1322.6C268.353,1323.7 269.238,1324.61 270.342,1324.62L270.365,1322.62L270.387,1320.62ZM278.115,1324.99C279.215,1325.09 280.184,1324.27 280.278,1323.17C280.373,1322.07 279.557,1321.1 278.457,1321.01L278.115,1324.99ZM286.512,1322.02C285.423,1321.84 284.392,1322.58 284.209,1323.67C284.027,1324.75 284.762,1325.79 285.852,1325.97L286.182,1324L286.512,1322.02ZM293.479,1327.58C294.549,1327.85 295.639,1327.21 295.914,1326.14C296.188,1325.07 295.543,1323.98 294.473,1323.7L293.479,1327.58ZM302.216,1326.06C301.175,1325.69 300.032,1326.23 299.664,1327.28C299.297,1328.32 299.843,1329.46 300.885,1329.83L301.55,1327.94L302.216,1326.06ZM308.123,1332.76C309.126,1333.22 310.314,1332.78 310.775,1331.78C311.236,1330.77 310.796,1329.59 309.792,1329.13L308.957,1330.94L308.123,1332.76ZM317.007,1332.85C316.049,1332.29 314.827,1332.63 314.276,1333.58C313.726,1334.54 314.056,1335.76 315.014,1336.31L316.011,1334.58L317.007,1332.85ZM321.586,1340.49C322.491,1341.13 323.738,1340.91 324.372,1340C325.006,1339.1 324.786,1337.85 323.882,1337.22L322.734,1338.86L321.586,1340.49ZM330.325,1342.17C329.479,1341.46 328.217,1341.57 327.507,1342.41C326.798,1343.26 326.909,1344.52 327.755,1345.23L330.325,1342.17ZM333.528,1350.49C334.313,1351.27 334.935,1349.07 334.935,1349.07L333.528,1350.49ZM335.079,1609.09C335.079,1609.09 334.207,1606.97 333.517,1607.84L335.079,1609.09ZM328.45,1613.79C327.708,1614.6 327.769,1615.87 328.587,1616.61C329.405,1617.35 330.67,1617.29 331.412,1616.47L328.45,1613.79ZM325.759,1622.29C326.556,1621.53 326.581,1620.26 325.816,1619.47C325.051,1618.67 323.785,1618.64 322.988,1619.41L324.374,1620.85L325.759,1622.29ZM317.155,1624.61C316.304,1625.32 316.184,1626.58 316.888,1627.43C317.592,1628.28 318.852,1628.4 319.704,1627.7L318.429,1626.16L317.155,1624.61ZM313.264,1632.6C314.169,1631.97 314.389,1630.72 313.756,1629.82C313.123,1628.91 311.876,1628.69 310.971,1629.33L312.117,1630.97L313.264,1632.6ZM304.386,1633.53C303.43,1634.08 303.102,1635.3 303.654,1636.26C304.207,1637.21 305.43,1637.54 306.387,1636.99L305.386,1635.26L304.386,1633.53ZM299.167,1640.73C300.17,1640.27 300.609,1639.08 300.146,1638.08C299.683,1637.07 298.495,1636.64 297.492,1637.1L298.33,1638.92L299.167,1640.73ZM290.285,1640.02C289.242,1640.38 288.692,1641.52 289.057,1642.56C289.421,1643.61 290.562,1644.16 291.605,1643.79L290.945,1641.9L290.285,1640.02ZM283.808,1646.1C284.881,1645.84 285.539,1644.76 285.277,1643.68C285.016,1642.61 283.934,1641.95 282.861,1642.21L283.334,1644.16L283.808,1646.1ZM275.215,1643.68C274.121,1643.84 273.361,1644.85 273.516,1645.95C273.672,1647.04 274.685,1647.8 275.778,1647.64L275.496,1645.66L275.215,1643.68ZM267.695,1648.4C268.798,1648.35 269.651,1647.42 269.599,1646.31C269.547,1645.21 268.611,1644.36 267.508,1644.41L267.601,1646.41L267.695,1648.4ZM51.552,4L51.552,0C50.158,0 48.787,0.043 47.439,0.127L47.689,4.12C48.953,4.04 50.24,4 51.552,4ZM40.128,5.098L39.343,1.176C36.575,1.73 33.932,2.471 31.419,3.38L32.781,7.141C35.102,6.301 37.553,5.614 40.128,5.098ZM24.909,8.536L23.934,6.79C21.482,8.159 19.201,9.709 17.1,11.412L18.359,12.966L19.619,14.519C21.541,12.961 23.632,11.54 25.884,10.282L24.909,8.536ZM12.68,18.475L11.164,17.171C9.345,19.283 7.74,21.538 6.36,23.904L8.088,24.912L9.816,25.92C11.073,23.764 12.536,21.708 14.195,19.78L12.68,18.475ZM4.752,32.081L2.868,31.408C1.939,34.013 1.254,36.699 0.824,39.435L2.8,39.745L4.776,40.056C5.167,37.567 5.79,35.123 6.636,32.753L4.752,32.081ZM2.309,47.636L0.31,47.699C0.396,50.431 0.736,53.179 1.339,55.91L3.292,55.479L5.245,55.048C4.695,52.559 4.386,50.059 4.308,47.573L2.309,47.636ZM5.691,63.018L3.847,63.793C4.891,66.276 6.169,68.718 7.689,71.094L9.374,70.017L11.059,68.939C9.661,66.753 8.489,64.514 7.535,62.243L5.691,63.018ZM14.148,76.31L12.653,77.639C14.417,79.623 16.375,81.535 18.532,83.36L19.824,81.833L21.115,80.306C19.099,78.601 17.278,76.82 15.643,74.982L14.148,76.31ZM26.181,86.547L25.09,88.224C27.283,89.65 29.627,90.999 32.126,92.26L33.027,90.474L33.928,88.689C31.555,87.491 29.338,86.215 27.271,84.871L26.181,86.547ZM40.255,93.691L39.528,95.554C41.958,96.502 44.507,97.376 47.177,98.171L47.747,96.254L48.317,94.337C45.749,93.573 43.305,92.734 40.982,91.827L40.255,93.691ZM55.412,98.228L54.982,100.181C57.521,100.74 60.154,101.232 62.883,101.654L63.188,99.677L63.493,97.701C60.845,97.292 58.295,96.815 55.842,96.275L55.412,98.228ZM71.034,100.661L70.839,102.651C72.176,102.782 73.532,102.897 74.909,102.995L75.052,101L75.195,99.005C73.851,98.909 72.529,98.797 71.228,98.67L71.034,100.661ZM75.052,101L74.909,102.995C76.188,103.086 77.504,103.153 78.856,103.199L78.923,101.2L78.99,99.201C77.683,99.157 76.418,99.093 75.195,99.005L75.052,101ZM86.793,101.238L86.831,103.238C89.363,103.189 91.992,103.089 94.705,102.949L94.602,100.951L94.498,98.954C91.819,99.092 89.235,99.191 86.754,99.239L86.793,101.238ZM102.423,100.461L102.567,102.456C105.122,102.272 107.739,102.065 110.41,101.841L110.076,97.855C107.416,98.078 104.815,98.284 102.28,98.467L102.423,100.461ZM118.058,99.167L118.237,101.159C120.802,100.929 123.41,100.691 126.051,100.452L125.87,98.46L125.69,96.469C123.046,96.708 120.442,96.945 117.88,97.175L118.058,99.167ZM133.683,97.762L133.857,99.755C136.433,99.529 139.035,99.307 141.659,99.095L141.498,97.101L141.336,95.108C138.701,95.321 136.09,95.544 133.508,95.77L133.683,97.762ZM149.318,96.503L149.46,98.498C152.047,98.314 154.649,98.142 157.262,97.989L157.145,95.992L157.027,93.996C154.395,94.15 151.777,94.323 149.175,94.508L149.318,96.503ZM164.978,95.593L165.063,97.591C167.659,97.48 170.261,97.391 172.864,97.328L172.768,93.329C170.138,93.392 167.511,93.482 164.892,93.595L164.978,95.593ZM180.658,95.226L180.661,97.226C183.262,97.221 185.86,97.248 188.45,97.31L188.498,95.31L188.546,93.311C185.919,93.248 183.287,93.221 180.654,93.226L180.658,95.226ZM196.332,95.613L196.225,97.61C198.822,97.749 201.407,97.93 203.976,98.157L204.151,96.164L204.327,94.172C201.71,93.941 199.08,93.757 196.44,93.615L196.332,95.613ZM212.197,95.018L211.691,98.985C214.27,99.315 216.826,99.696 219.355,100.134L219.696,98.164L220.038,96.193C217.447,95.744 214.832,95.354 212.197,95.018ZM227.386,99.695L226.945,101.645C229.475,102.218 231.971,102.855 234.428,103.562L234.981,101.64L235.534,99.718C232.999,98.988 230.428,98.332 227.827,97.744L227.386,99.695ZM242.441,104.048L241.764,105.929C244.192,106.803 246.574,107.756 248.904,108.792L249.717,106.965L250.53,105.137C248.106,104.059 245.634,103.071 243.119,102.166L242.441,104.048ZM256.746,110.433L255.788,112.188C258.035,113.414 260.224,114.732 262.349,116.146L263.457,114.482L264.565,112.817C262.339,111.335 260.05,109.957 257.704,108.677L256.746,110.433ZM271.032,117.57L268.514,120.678C270.482,122.273 272.384,123.969 274.214,125.772L275.618,124.347L277.021,122.923C275.098,121.027 273.099,119.245 271.032,117.57ZM280.925,130.114L279.39,131.395C280.997,133.322 282.536,135.352 284,137.491L285.65,136.361L287.301,135.232C285.765,132.988 284.15,130.857 282.461,128.833L280.925,130.114ZM289.772,143.014L288.027,143.99C289.245,146.167 290.396,148.442 291.476,150.82L293.297,149.992L295.118,149.165C293.992,146.688 292.791,144.313 291.517,142.037L289.772,143.014ZM296.252,157.23L294.374,157.916C294.816,159.126 295.241,160.36 295.65,161.618L299.454,160.382C299.031,159.079 298.59,157.8 298.131,156.544L296.252,157.23ZM299.454,160.382L295.65,161.618C296.026,162.775 296.341,163.955 296.598,165.157L298.554,164.739L300.509,164.32C300.224,162.988 299.874,161.675 299.454,160.382ZM299.469,172.409L297.471,172.478C297.553,174.882 297.46,177.369 297.211,179.94L299.202,180.133L301.192,180.325C301.456,177.605 301.558,174.942 301.468,172.34L299.469,172.409ZM298.078,187.803L296.113,187.427C295.653,189.838 295.088,192.309 294.435,194.843L296.372,195.342L298.308,195.841C298.979,193.24 299.563,190.685 300.042,188.179L298.078,187.803ZM294.267,202.806L292.353,202.226C291.628,204.615 290.846,207.052 290.018,209.537L291.916,210.169L293.813,210.801C294.649,208.29 295.443,205.818 296.181,203.387L294.267,202.806ZM289.404,217.502L287.517,216.841C286.68,219.233 285.815,221.663 284.933,224.133L286.817,224.806L288.701,225.478C289.583,223.005 290.451,220.566 291.292,218.163L289.404,217.502ZM284.218,232.09L282.334,231.42C281.479,233.825 280.619,236.265 279.761,238.738L281.651,239.394L283.54,240.049C284.393,237.588 285.25,235.159 286.103,232.759L284.218,232.09ZM281.057,247.358L277.261,246.098C276.451,248.537 275.653,251.007 274.873,253.508L276.783,254.103L278.692,254.698C279.463,252.224 280.254,249.777 281.057,247.358ZM274.56,261.522L272.637,260.97C271.927,263.448 271.241,265.954 270.587,268.488L272.524,268.988L274.461,269.487C275.104,266.99 275.781,264.519 276.482,262.073L274.56,261.522ZM272.657,276.95L268.755,276.072C268.188,278.595 267.657,281.144 267.171,283.72L269.137,284.091L271.102,284.462C271.579,281.934 272.1,279.43 272.657,276.95ZM267.845,291.724L265.867,291.428C265.485,293.99 265.151,296.577 264.871,299.189L266.859,299.402L268.848,299.615C269.122,297.06 269.449,294.528 269.823,292.019L267.845,291.724ZM268.2,307.24L264.208,306.99C264.046,309.577 263.942,312.186 263.9,314.819L265.9,314.85L267.9,314.882C267.94,312.313 268.042,309.766 268.2,307.24ZM265.965,322.591L263.966,322.656C264.052,325.244 264.201,327.854 264.42,330.483L266.413,330.318L268.406,330.152C268.193,327.59 268.047,325.048 267.964,322.525L265.965,322.591ZM267.25,338.012L265.268,338.278C265.612,340.84 266.026,343.421 266.512,346.02L270.444,345.284C269.97,342.753 269.568,340.24 269.232,337.745L267.25,338.012ZM270.093,353.219L268.149,353.686C268.454,354.959 268.778,356.235 269.12,357.516L272.984,356.484C272.651,355.236 272.336,353.992 272.038,352.752L270.093,353.219ZM272.984,356.484L269.12,357.516C269.461,358.795 269.8,360.078 270.136,361.366L272.071,360.861L274.007,360.357C273.669,359.061 273.328,357.77 272.984,356.484ZM275.981,368.148L272.097,369.102C272.73,371.679 273.345,374.267 273.938,376.863L275.887,376.418L277.837,375.973C277.24,373.353 276.619,370.744 275.981,368.148ZM279.553,383.835L275.637,384.649C276.177,387.251 276.69,389.857 277.171,392.463L279.138,392.101L281.104,391.738C280.618,389.1 280.099,386.465 279.553,383.835ZM280.489,399.994L278.514,400.306C278.928,402.933 279.304,405.558 279.638,408.175L281.621,407.922L283.605,407.669C283.267,405.011 282.885,402.347 282.465,399.683L280.489,399.994ZM282.501,415.881L280.51,416.066C280.756,418.715 280.953,421.352 281.094,423.974L285.088,423.758C284.944,421.082 284.743,418.393 284.493,415.696L282.501,415.881ZM283.35,431.868L281.35,431.887C281.376,434.544 281.338,437.179 281.231,439.79L283.229,439.871L285.228,439.953C285.337,437.272 285.376,434.569 285.35,431.848L283.35,431.868ZM282.677,447.855L280.686,447.658C280.426,450.293 280.086,452.895 279.661,455.462L281.634,455.788L283.607,456.115C284.047,453.458 284.398,450.769 284.667,448.052L282.677,447.855ZM280.041,463.633L278.097,463.161C277.476,465.719 276.759,468.233 275.939,470.699L279.735,471.961C280.591,469.385 281.338,466.765 281.984,464.104L280.041,463.633ZM274.974,478.803L273.141,478.002C272.099,480.387 270.945,482.719 269.673,484.992L271.419,485.969L273.165,486.945C274.502,484.554 275.713,482.105 276.806,479.604L274.974,478.803ZM267.165,492.742L265.528,491.592C264.049,493.698 262.45,495.746 260.725,497.729L262.234,499.042L263.743,500.354C265.56,498.265 267.244,496.109 268.801,493.891L267.165,492.742ZM256.68,504.805L255.312,503.346C253.449,505.093 251.467,506.782 249.361,508.407L250.582,509.99L251.804,511.574C254.011,509.871 256.091,508.1 258.049,506.263L256.68,504.805ZM245.108,516.272L242.956,512.9C240.81,514.269 238.554,515.583 236.185,516.838L237.121,518.605L238.057,520.373C240.519,519.069 242.868,517.701 245.108,516.272ZM229.928,522.081L229.123,520.25C226.789,521.277 224.359,522.254 221.83,523.178L222.516,525.056L223.203,526.935C225.81,525.983 228.319,524.974 230.734,523.911L229.928,522.081ZM214.926,527.581L214.348,525.667C211.883,526.41 209.334,527.109 206.699,527.761L207.179,529.702L207.659,531.644C210.358,530.977 212.972,530.26 215.504,529.496L214.926,527.581ZM199.729,533.412L198.945,529.49C196.437,529.991 193.859,530.453 191.208,530.874L191.522,532.85L191.836,534.825C194.538,534.395 197.168,533.924 199.729,533.412ZM183.589,533.964L183.346,531.978C180.755,532.296 178.101,532.577 175.382,532.822L175.561,534.814L175.741,536.806C178.501,536.558 181.198,536.272 183.832,535.949L183.589,533.964ZM167.789,537.405L167.545,533.413C164.936,533.572 162.271,533.7 159.55,533.795L159.69,537.793C162.445,537.697 165.145,537.567 167.789,537.405ZM151.675,537.977L151.629,533.977C150.283,533.992 148.924,534 147.552,534L147.552,538C148.939,538 150.313,537.992 151.675,537.977ZM147.552,538L147.552,534C146.253,534 144.95,534.01 143.644,534.032L143.676,536.031L143.709,538.031C144.993,538.01 146.274,538 147.552,538ZM135.911,536.287L135.811,534.29C133.21,534.42 130.6,534.595 127.987,534.82L128.159,536.813L128.33,538.806C130.894,538.585 133.456,538.412 136.011,538.285L135.911,536.287ZM120.432,537.625L120.185,535.641C117.592,535.964 115.001,536.339 112.417,536.77L112.745,538.742L113.074,540.715C115.602,540.294 118.139,539.927 120.68,539.61L120.432,537.625ZM105.113,540.184L104.698,538.228C102.135,538.771 99.583,539.373 97.047,540.037L97.554,541.972L98.06,543.907C100.533,543.259 103.024,542.672 105.527,542.141L105.113,540.184ZM90.091,544.127L89.487,542.221C86.984,543.014 84.501,543.873 82.046,544.802L82.753,546.673L83.46,548.543C85.846,547.641 88.259,546.806 90.695,546.034L90.091,544.127ZM76.387,551.454L74.756,547.802C72.355,548.874 69.986,550.019 67.653,551.241L68.581,553.013L69.509,554.784C71.766,553.602 74.06,552.493 76.387,551.454ZM61.823,556.84L60.78,555.133C58.537,556.505 56.336,557.955 54.181,559.488L55.34,561.118L56.499,562.747C58.577,561.269 60.701,559.87 62.866,558.546L61.823,556.84ZM49.178,565.845L47.904,564.303C45.883,565.974 43.913,567.727 41.997,569.566L43.382,571.009L44.768,572.451C46.611,570.682 48.507,568.994 50.453,567.386L49.178,565.845ZM37.989,576.591L36.5,575.256C34.757,577.201 33.071,579.228 31.445,581.342L33.03,582.561L34.615,583.781C36.18,581.747 37.802,579.796 39.479,577.925L37.989,576.591ZM28.526,588.883L26.856,587.783C25.426,589.954 24.055,592.204 22.747,594.536L24.491,595.515L26.235,596.494C27.498,594.244 28.819,592.075 30.197,589.983L28.526,588.883ZM20.925,602.413L19.119,601.555C18.008,603.893 16.955,606.305 15.963,608.793L17.82,609.534L19.678,610.275C20.639,607.865 21.658,605.531 22.732,603.271L20.925,602.413ZM15.161,616.841L13.262,616.213C12.45,618.667 11.694,621.188 10.995,623.777L12.926,624.298L14.857,624.819C15.537,622.3 16.272,619.851 17.06,617.469L15.161,616.841ZM11.106,631.82L9.151,631.399C8.611,633.906 8.122,636.472 7.685,639.099L9.658,639.427L11.631,639.755C12.057,637.189 12.535,634.685 13.061,632.241L11.106,631.82ZM10.541,647.35L6.571,646.868C6.26,649.425 5.996,652.036 5.782,654.701L9.769,655.023C9.979,652.41 10.238,649.853 10.541,647.35ZM7.296,662.623L5.298,662.537C5.188,665.086 5.12,667.682 5.095,670.325L9.095,670.363C9.119,667.763 9.186,665.213 9.294,662.71L7.296,662.623ZM9.146,678.082L5.147,678.17C5.204,680.744 5.301,683.36 5.437,686.02L7.435,685.917L9.432,685.814C9.297,683.193 9.202,680.615 9.146,678.082ZM9.929,693.458L5.942,693.77C6.143,696.342 6.38,698.952 6.655,701.601L8.644,701.395L10.634,701.189C10.363,698.572 10.128,695.995 9.929,693.458ZM11.515,708.824L7.547,709.328C7.713,710.635 7.888,711.95 8.071,713.274L10.052,713L12.033,712.726C11.852,711.416 11.679,710.116 11.515,708.824ZM10.052,713L8.071,713.274C8.268,714.7 8.547,716.063 8.905,717.365L10.834,716.834L12.762,716.303C12.452,715.179 12.208,713.988 12.033,712.726L10.052,713ZM13.98,723.847L12.311,724.95C13.857,727.291 15.757,729.314 17.953,731.064L19.199,729.5L20.446,727.935C18.549,726.425 16.944,724.707 15.648,722.745L13.98,723.847ZM26.63,731.717L24.922,735.333C27.251,736.434 29.765,737.369 32.429,738.171L33.006,736.256L33.582,734.34C31.071,733.585 28.749,732.718 26.63,731.717ZM40.902,736.144L40.115,740.066C42.611,740.567 45.208,740.994 47.888,741.365L48.437,737.403C45.821,737.04 43.305,736.626 40.902,736.144ZM55.857,740.29L55.658,742.28C58.184,742.532 60.769,742.754 63.402,742.956L63.555,740.962L63.709,738.968C61.098,738.767 58.544,738.548 56.056,738.3L55.857,740.29ZM71.272,741.505L71.142,743.501C73.686,743.667 76.268,743.828 78.871,743.992L78.997,741.996L79.123,740C76.515,739.836 73.941,739.676 71.403,739.51L71.272,741.505ZM86.722,742.498L86.586,744.494C89.138,744.668 91.706,744.855 94.282,745.062L94.443,743.069L94.604,741.075C92.007,740.866 89.422,740.678 86.858,740.503L86.722,742.498ZM102.353,741.771L101.955,745.751C104.505,746.006 107.054,746.29 109.596,746.611L109.847,744.627L110.097,742.642C107.516,742.316 104.932,742.029 102.353,741.771ZM117.827,743.745L117.193,747.695C119.723,748.101 122.237,748.552 124.729,749.058L125.525,745.138C122.974,744.62 120.406,744.159 117.827,743.745ZM132.671,748.822L132.176,750.759C134.651,751.393 137.095,752.09 139.499,752.861L140.109,750.956L140.72,749.052C138.234,748.255 135.713,747.536 133.167,746.884L132.671,748.822ZM148.134,751.711L146.648,755.425C149.004,756.368 151.311,757.394 153.561,758.514L154.452,756.723L155.343,754.933C152.99,753.762 150.584,752.691 148.134,751.711ZM162.264,758.777L160.16,762.179C162.293,763.498 164.361,764.92 166.357,766.453L167.575,764.868L168.794,763.282C166.687,761.662 164.507,760.164 162.264,758.777ZM173.444,769.899L172.061,771.345C173.849,773.054 175.562,774.878 177.195,776.825L178.727,775.54L180.26,774.255C178.532,772.194 176.718,770.263 174.826,768.454L173.444,769.899ZM183.363,781.721L181.701,782.834C183.062,784.868 184.349,787.017 185.555,789.289L187.322,788.351L189.088,787.412C187.819,785.023 186.463,782.757 185.025,780.609L183.363,781.721ZM192.462,794.561L188.77,796.101C189.257,797.268 189.725,798.464 190.174,799.689L193.93,798.311C193.461,797.033 192.971,795.783 192.462,794.561ZM193.93,798.311L190.174,799.689C190.665,801.027 191.185,802.325 191.734,803.585L193.567,802.787L195.401,801.988C194.885,800.802 194.394,799.577 193.93,798.311ZM197.229,809.912L195.515,810.944C196.981,813.379 198.577,815.635 200.295,817.724L201.839,816.453L203.384,815.183C201.792,813.247 200.309,811.151 198.943,808.881L197.229,809.912ZM207.401,822.246L206.068,823.737C208.151,825.597 210.356,827.279 212.671,828.799L213.768,827.127L214.866,825.455C212.71,824.039 210.662,822.477 208.733,820.754L207.401,822.246ZM220.762,831.07L219.893,832.872C222.35,834.056 224.898,835.101 227.525,836.024L228.187,834.137L228.85,832.25C226.351,831.372 223.942,830.383 221.63,829.269L220.762,831.07ZM236.361,834.501L235.381,838.379C237.986,839.037 240.654,839.602 243.374,840.086L243.725,838.117L244.075,836.148C241.438,835.679 238.865,835.134 236.361,834.501ZM251.676,839.293L251.437,841.278C254.095,841.598 256.794,841.857 259.527,842.066L259.68,840.072L259.832,838.078C257.15,837.873 254.509,837.619 251.915,837.307L251.676,839.293ZM267.794,838.549L267.62,842.545C270.291,842.661 272.988,842.74 275.705,842.793L275.743,840.793L275.782,838.793C273.092,838.742 270.428,838.663 267.794,838.549ZM283.783,838.876L283.773,842.876C286.446,842.883 289.132,842.872 291.827,842.853L291.812,840.853L291.798,838.853C289.112,838.872 286.439,838.883 283.783,838.876ZM299.826,838.775L299.87,842.775C302.547,842.745 305.225,842.714 307.902,842.691L307.866,838.691C305.184,838.715 302.5,838.745 299.826,838.775ZM315.921,840.648L315.923,842.648C318.603,842.645 321.274,842.658 323.932,842.693L323.959,840.694L323.986,838.694C321.305,838.658 318.614,838.645 315.92,838.648L315.921,840.648ZM331.995,840.879L331.927,842.878C334.607,842.97 334.775,838.973 332.063,838.881L331.995,840.879ZM334.804,1032.47C337.275,1031.66 335.96,1027.88 333.567,1028.66L334.185,1030.56L334.804,1032.47ZM326.727,1032.75L326.219,1030.81C323.726,1031.47 321.237,1032.05 318.756,1032.58L319.174,1034.54L319.592,1036.49C322.124,1035.95 324.674,1035.35 327.235,1034.68L326.727,1032.75ZM311.55,1036.02L311.197,1034.05C308.64,1034.51 306.097,1034.93 303.571,1035.33L303.886,1037.31L304.202,1039.28C306.741,1038.88 309.311,1038.45 311.902,1037.99L311.55,1036.02ZM296.221,1038.51L295.91,1036.54C293.315,1036.95 290.743,1037.36 288.203,1037.81L288.891,1041.75C291.398,1041.31 293.945,1040.9 296.532,1040.49L296.221,1038.51ZM280.93,1041.24L280.511,1039.29C277.912,1039.84 275.351,1040.46 272.837,1041.17L273.379,1043.1L273.921,1045.02C276.339,1044.34 278.816,1043.74 281.35,1043.2L280.93,1041.24ZM266.009,1045.52L265.294,1043.65C262.802,1044.6 260.367,1045.69 257.999,1046.93L258.929,1048.7L259.858,1050.47C262.073,1049.31 264.363,1048.29 266.723,1047.39L266.009,1045.52ZM252.322,1052.76L251.158,1051.13C249.019,1052.67 246.955,1054.37 244.973,1056.29L246.361,1057.73L247.75,1059.17C249.589,1057.39 251.503,1055.81 253.487,1054.39L252.322,1052.76ZM241.172,1063.48L239.599,1062.25C238.017,1064.27 236.505,1066.45 235.067,1068.82L236.777,1069.86L238.488,1070.9C239.845,1068.66 241.266,1066.6 242.745,1064.72L241.172,1063.48ZM234.905,1077.57L231.293,1075.85C230.202,1078.14 229.166,1080.58 228.187,1083.16L230.057,1083.87L231.928,1084.58C232.87,1082.09 233.864,1079.75 234.905,1077.57ZM227.559,1091.23L225.646,1090.65C224.913,1093.06 224.222,1095.58 223.573,1098.23L225.516,1098.7L227.458,1099.18C228.091,1096.6 228.763,1094.15 229.473,1091.81L227.559,1091.23ZM225.808,1106.64L221.884,1105.86C221.394,1108.33 220.936,1110.9 220.511,1113.56L222.486,1113.87L224.461,1114.19C224.879,1111.58 225.328,1109.06 225.808,1106.64ZM221.385,1121.58L219.401,1121.32C219.078,1123.86 218.781,1126.48 218.512,1129.19L220.502,1129.38L222.493,1129.58C222.758,1126.91 223.05,1124.33 223.369,1121.83L221.385,1121.58ZM219.834,1137.02L217.839,1136.87C217.739,1138.18 217.645,1139.52 217.556,1140.87L221.548,1141.13C221.635,1139.79 221.729,1138.47 221.828,1137.17L219.834,1137.02ZM221.548,1141.13L217.556,1140.87C217.471,1142.17 217.364,1143.45 217.234,1144.7L219.223,1144.91L221.213,1145.12C221.348,1143.81 221.459,1142.48 221.548,1141.13ZM218.103,1152.59L216.139,1152.22C215.646,1154.79 215.044,1157.25 214.337,1159.58L216.251,1160.16L218.166,1160.74C218.916,1158.26 219.55,1155.67 220.068,1152.97L218.103,1152.59ZM213.561,1167.45L211.732,1166.65C210.698,1168.99 209.534,1171.19 208.244,1173.28L209.944,1174.33L211.645,1175.38C213.035,1173.14 214.284,1170.77 215.39,1168.26L213.561,1167.45ZM206.907,1181.92L203.849,1179.34C202.244,1181.24 200.502,1183.03 198.623,1184.7L199.952,1186.2L201.282,1187.69C203.3,1185.89 205.176,1183.97 206.907,1181.92ZM193.811,1190.97L192.686,1189.32C190.649,1190.7 188.488,1191.99 186.202,1193.2L188.068,1196.74C190.477,1195.47 192.767,1194.1 194.935,1192.62L193.811,1190.97ZM180.096,1198.26L179.331,1196.41C177.041,1197.36 174.649,1198.24 172.156,1199.06L172.78,1200.96L173.403,1202.86C175.985,1202.02 178.472,1201.1 180.862,1200.11L180.096,1198.26ZM165.328,1203.15L164.822,1201.21C162.408,1201.85 159.913,1202.43 157.337,1202.97L157.747,1204.93L158.156,1206.88C160.791,1206.33 163.351,1205.73 165.834,1205.08L165.328,1203.15ZM150.075,1206.36L149.746,1204.39C147.272,1204.8 144.734,1205.18 142.132,1205.53L142.66,1209.49C145.303,1209.14 147.885,1208.76 150.405,1208.33L150.075,1206.36ZM134.672,1208.43L134.463,1206.44C131.948,1206.7 129.379,1206.94 126.757,1207.16L126.922,1209.15L127.086,1211.15C129.736,1210.93 132.335,1210.69 134.882,1210.42L134.672,1208.43ZM119.155,1209.72L119.028,1207.72C116.492,1207.89 113.911,1208.03 111.284,1208.16L111.38,1210.15L111.476,1212.15C114.122,1212.02 116.724,1211.88 119.283,1211.72L119.155,1209.72ZM103.601,1210.48L103.53,1208.48C100.983,1208.57 98.397,1208.64 95.771,1208.71L95.869,1212.71C98.507,1212.64 101.108,1212.56 103.671,1212.47L103.601,1210.48ZM88.038,1210.86L88.007,1208.86C85.452,1208.9 82.863,1208.93 80.239,1208.95L80.256,1210.95L80.273,1212.95C82.905,1212.93 85.504,1212.9 88.069,1212.86L88.038,1210.86ZM72.478,1213L72.468,1209L68.552,1209L68.552,1213L72.478,1213ZM68.552,1211L68.566,1209C67.251,1208.99 65.943,1209.02 64.643,1209.07L64.732,1211.07L64.822,1213.07C66.052,1213.01 67.291,1212.99 68.538,1213L68.552,1211ZM57.133,1211.81L56.833,1209.84C54.223,1210.23 51.658,1210.77 49.148,1211.43L49.66,1213.37L50.172,1215.3C52.542,1214.67 54.965,1214.17 57.434,1213.79L57.133,1211.81ZM42.402,1215.72L41.68,1213.86C39.221,1214.81 36.833,1215.9 34.525,1217.11L35.454,1218.88L36.384,1220.65C38.556,1219.51 40.807,1218.49 43.125,1217.59L42.402,1215.72ZM28.914,1222.81L27.785,1221.16C25.612,1222.65 23.534,1224.25 21.564,1225.98L22.881,1227.48L24.199,1228.99C26.048,1227.37 28,1225.86 30.043,1224.46L28.914,1222.81ZM17.456,1232.85L15.965,1231.52C14.216,1233.48 12.587,1235.54 11.091,1237.71L12.737,1238.85L14.383,1239.98C15.784,1237.95 17.309,1236.02 18.948,1234.18L17.456,1232.85ZM8.81,1245.39L7.033,1244.47C5.834,1246.79 4.774,1249.2 3.865,1251.69L5.743,1252.38L7.622,1253.06C8.473,1250.73 9.465,1248.48 10.586,1246.31L8.81,1245.39ZM3.583,1259.69L1.633,1259.25C1.056,1261.77 0.625,1264.36 0.351,1267.02L2.34,1267.22L4.33,1267.43C4.588,1264.93 4.992,1262.5 5.532,1260.14L3.583,1259.69ZM2,1274.85L0,1274.88C0.033,1277.44 0.208,1280.05 0.531,1282.7L2.516,1282.46L4.501,1282.22C4.196,1279.71 4.031,1277.24 4,1274.83L2,1274.85ZM3.823,1289.97L1.872,1290.41C2.432,1292.9 3.121,1295.42 3.944,1297.96L5.847,1297.34L7.75,1296.73C6.963,1294.3 6.306,1291.9 5.774,1289.53L3.823,1289.97ZM8.501,1304.49L6.656,1305.26C7.154,1306.45 7.681,1307.64 8.238,1308.84L10.052,1308L11.866,1307.16C11.33,1306 10.823,1304.86 10.346,1303.72L8.501,1304.49ZM10.052,1308L8.238,1308.84C8.812,1310.08 9.409,1311.28 10.029,1312.45L11.797,1311.52L13.565,1310.58C12.977,1309.47 12.411,1308.33 11.866,1307.16L10.052,1308ZM15.808,1318.19L14.156,1319.31C15.696,1321.57 17.344,1323.69 19.1,1325.68L20.599,1324.35L22.097,1323.03C20.453,1321.17 18.908,1319.18 17.46,1317.06L15.808,1318.19ZM27.441,1328.33L24.817,1331.35C26.841,1333.11 28.977,1334.73 31.224,1336.22L32.331,1334.56L33.437,1332.89C31.331,1331.49 29.333,1329.97 27.441,1328.33ZM39.983,1336.68L38.186,1340.26C40.532,1341.44 42.975,1342.5 45.515,1343.46L46.219,1341.58L46.923,1339.71C44.508,1338.8 42.195,1337.8 39.983,1336.68ZM53.643,1343.98L53.112,1345.91C55.618,1346.6 58.206,1347.2 60.876,1347.72L61.639,1343.8C59.063,1343.3 56.575,1342.72 54.174,1342.06L53.643,1343.98ZM68.94,1347L68.684,1348.98C71.236,1349.31 73.856,1349.57 76.543,1349.78L76.695,1347.78L76.846,1345.79C74.225,1345.59 71.675,1345.33 69.197,1345.01L68.94,1347ZM84.486,1348.2L84.422,1350.2C86.992,1350.28 89.617,1350.31 92.3,1350.3L92.29,1348.3L92.28,1346.3C89.643,1346.31 87.067,1346.28 84.55,1346.2L84.486,1348.2ZM100.092,1348.14L100.164,1350.14C102.731,1350.04 105.346,1349.91 108.009,1349.75L107.885,1347.75L107.761,1345.76C105.13,1345.92 102.55,1346.05 100.021,1346.14L100.092,1348.14ZM115.665,1347.18L115.834,1349.17C118.393,1348.96 120.995,1348.71 123.638,1348.44L123.226,1344.46C120.606,1344.73 118.03,1344.97 115.497,1345.19L115.665,1347.18ZM131.188,1345.58L131.427,1347.56C133.982,1347.26 136.574,1346.93 139.203,1346.57L138.671,1342.61C136.059,1342.96 133.485,1343.29 130.95,1343.59L131.188,1345.58ZM146.391,1341.52L146.971,1345.48C149.517,1345.11 152.097,1344.72 154.709,1344.31L154.399,1342.33L154.088,1340.36C151.489,1340.76 148.923,1341.15 146.391,1341.52ZM161.753,1339.12L162.409,1343.06C164.946,1342.64 167.513,1342.2 170.11,1341.75L169.424,1337.81C166.837,1338.26 164.279,1338.7 161.753,1339.12ZM177.464,1338.41L177.82,1340.38C180.361,1339.92 182.93,1339.45 185.526,1338.96L185.159,1337L184.792,1335.03C182.203,1335.52 179.641,1335.99 177.108,1336.45L177.464,1338.41ZM192.798,1335.55L193.174,1337.52C195.705,1337.03 198.261,1336.54 200.842,1336.03L200.457,1334.07L200.073,1332.11C197.497,1332.61 194.946,1333.1 192.422,1333.59L192.798,1335.55ZM208.141,1332.55L208.533,1334.51C211.054,1334.01 213.598,1333.5 216.166,1332.98L215.77,1331.02L215.373,1329.06C212.808,1329.58 210.268,1330.09 207.75,1330.59L208.141,1332.55ZM223.009,1327.5L223.811,1331.42C226.348,1330.9 228.908,1330.37 231.489,1329.84L231.085,1327.88L230.68,1325.92C228.101,1326.46 225.543,1326.98 223.009,1327.5ZM238.698,1326.3L239.106,1328.26C240.385,1327.99 241.67,1327.73 242.961,1327.46L242.552,1325.5L242.144,1323.54C240.854,1323.81 239.57,1324.08 238.291,1324.35L238.698,1326.3ZM242.552,1325.5L242.961,1327.46C244.303,1327.18 245.633,1326.92 246.953,1326.68L246.598,1324.71L246.244,1322.75C244.888,1322.99 243.521,1323.25 242.144,1323.54L242.552,1325.5ZM254.493,1323.52L254.733,1325.51C257.366,1325.19 259.951,1324.96 262.489,1324.81L262.373,1322.81L262.257,1320.82C259.634,1320.97 256.966,1321.21 254.252,1321.54L254.493,1323.52ZM270.365,1322.62L270.342,1324.62C272.988,1324.65 275.579,1324.78 278.115,1324.99L278.457,1321.01C275.82,1320.78 273.13,1320.65 270.387,1320.62L270.365,1322.62ZM286.182,1324L285.852,1325.97C288.456,1326.4 290.999,1326.94 293.479,1327.58L294.473,1323.7C291.881,1323.04 289.227,1322.48 286.512,1322.02L286.182,1324ZM301.55,1327.94L300.885,1329.83C303.364,1330.7 305.776,1331.68 308.123,1332.76L308.957,1330.94L309.792,1329.13C307.335,1328 304.81,1326.97 302.216,1326.06L301.55,1327.94ZM316.011,1334.58L315.014,1336.31C317.272,1337.61 319.462,1339.01 321.586,1340.49L322.734,1338.86L323.882,1337.22C321.661,1335.66 319.37,1334.2 317.007,1332.85L316.011,1334.58ZM330.325,1342.17L327.755,1345.23C329.745,1346.9 331.669,1348.65 333.528,1350.49L334.935,1349.07C334.935,1349.07 332.401,1343.91 330.325,1342.17ZM335.079,1609.09L333.517,1607.84C331.873,1609.89 330.184,1611.88 328.45,1613.79L331.412,1616.47C333.204,1614.5 335.079,1609.09 335.079,1609.09ZM324.374,1620.85L322.988,1619.41C321.092,1621.23 319.147,1622.97 317.155,1624.61L318.429,1626.16L319.704,1627.7C321.775,1625.99 323.793,1624.18 325.759,1622.29L324.374,1620.85ZM312.117,1630.97L310.971,1629.33C308.825,1630.83 306.63,1632.23 304.386,1633.53L305.386,1635.26L306.387,1636.99C308.734,1635.63 311.026,1634.17 313.264,1632.6L312.117,1630.97ZM298.33,1638.92L297.492,1637.1C295.139,1638.18 292.736,1639.16 290.285,1640.02L290.945,1641.9L291.605,1643.79C294.179,1642.89 296.7,1641.87 299.167,1640.73L298.33,1638.92ZM283.334,1644.16L282.861,1642.21C280.36,1642.82 277.811,1643.31 275.215,1643.68L275.496,1645.66L275.778,1647.64C278.503,1647.26 281.18,1646.74 283.808,1646.1L283.334,1644.16ZM267.601,1646.41L267.508,1644.41C266.201,1644.47 264.882,1644.5 263.552,1644.5L263.552,1648.5C264.944,1648.5 266.325,1648.47 267.695,1648.4L267.601,1646.41Z" style="fill:rgb(220,39,38);fill-opacity:0.8;fill-rule:nonzero;"/>
    </g>
</svg>
