<svg width="1241" height="531" viewBox="0 0 1241 531" fill="none" xmlns="http://www.w3.org/2000/svg">
<path d="M1.95413 529.67C27.4541 412.671 117.954 507.171 128.454 360.171C132.425 304.581 89.9541 169.671 188.454 137.671C230.474 124.02 297.454 187.407 384.454 164.171C464.954 142.671 563.454 131.671 563.454 287.671C563.454 360.171 595.954 445.171 740.454 425.171C796.803 417.372 734.992 276.707 826.454 243.171C901.454 215.671 843.454 95.1707 885.454 38.1708C927.454 -18.8292 999.454 -11.8293 1050.45 83.1707C1082.73 143.298 1038.45 207.171 1168.45 215.671C1230.67 219.739 1238.45 273.671 1238.45 366.671" stroke="#DC2726" stroke-opacity="0.8" stroke-width="4" stroke-dasharray="8 8"/>
</svg>
